<svg width="684" height="137" viewBox="0 0 684 137" fill="none" xmlns="http://www.w3.org/2000/svg">
<g clip-path="url(#clip0_72_15)">
<path d="M32.552 111.536C26.152 111.536 20.4347 110.341 15.4 107.952C10.4507 105.563 6.22667 102.533 2.728 98.864L6.568 94.768C9.81067 98.2667 13.6507 101.04 18.088 103.088C22.6107 105.136 27.4747 106.16 32.68 106.16C39.4213 106.16 44.7973 104.624 48.808 101.552C52.8187 98.3947 54.824 94.3413 54.824 89.392C54.824 85.808 54.056 82.9493 52.52 80.816C51.0693 78.6827 49.1067 76.9333 46.632 75.568C44.1573 74.2027 41.384 72.88 38.312 71.6L25.64 65.84C22.9947 64.7307 20.2213 63.3653 17.32 61.744C14.504 60.0373 12.1147 57.8613 10.152 55.216C8.18933 52.4853 7.208 49.0293 7.208 44.848C7.208 40.752 8.31733 37.168 10.536 34.096C12.7547 30.9387 15.8267 28.5067 19.752 26.8C23.6773 25.008 28.072 24.112 32.936 24.112C38.312 24.112 43.0907 25.136 47.272 27.184C51.5387 29.1467 55.0373 31.4933 57.768 34.224L54.312 38.064C51.752 35.4187 48.68 33.328 45.096 31.792C41.512 30.256 37.416 29.488 32.808 29.488C27.0053 29.488 22.2693 30.8533 18.6 33.584C14.9307 36.3147 13.096 39.984 13.096 44.592C13.096 47.8347 13.9493 50.48 15.656 52.528C17.448 54.576 19.5387 56.24 21.928 57.52C24.4027 58.8 26.7493 59.9093 28.968 60.848L41.64 66.48C45.0533 67.8453 48.2107 69.4667 51.112 71.344C54.0133 73.136 56.3173 75.44 58.024 78.256C59.816 80.9867 60.712 84.528 60.712 88.88C60.712 93.1467 59.5173 97.0293 57.128 100.528C54.824 103.941 51.5387 106.629 47.272 108.592C43.0907 110.555 38.184 111.536 32.552 111.536ZM113.014 110V53.424H82.166V48.56H118.646V110H113.014ZM114.422 33.584C112.801 33.584 111.393 33.0293 110.198 31.92C109.003 30.8107 108.406 29.3173 108.406 27.44C108.406 25.5627 109.003 24.0693 110.198 22.96C111.393 21.8507 112.801 21.296 114.422 21.296C116.129 21.296 117.537 21.8507 118.646 22.96C119.841 24.0693 120.438 25.5627 120.438 27.44C120.438 29.3173 119.841 30.8107 118.646 31.92C117.537 33.0293 116.129 33.584 114.422 33.584ZM167.364 110V48.56H172.228L172.868 63.664H173.124C176.452 58.8 180.548 54.832 185.412 51.76C190.361 48.6027 195.908 47.024 202.052 47.024C204.1 47.024 206.191 47.1947 208.324 47.536C210.457 47.8773 212.463 48.56 214.34 49.584L212.804 54.576C210.5 53.808 208.58 53.2533 207.044 52.912C205.593 52.5707 203.631 52.4 201.156 52.4C196.036 52.4 191.129 53.8507 186.436 56.752C181.828 59.6533 177.391 64.6027 173.124 71.6V110H167.364ZM266.514 110V53.424H235.666V48.56H272.146V110H266.514ZM267.922 33.584C266.301 33.584 264.893 33.0293 263.698 31.92C262.503 30.8107 261.906 29.3173 261.906 27.44C261.906 25.5627 262.503 24.0693 263.698 22.96C264.893 21.8507 266.301 21.296 267.922 21.296C269.629 21.296 271.037 21.8507 272.146 22.96C273.341 24.0693 273.938 25.5627 273.938 27.44C273.938 29.3173 273.341 30.8107 272.146 31.92C271.037 33.0293 269.629 33.584 267.922 33.584ZM333.152 111.536C325.643 111.536 320.096 109.488 316.512 105.392C312.928 101.296 311.136 95.1093 311.136 86.832V48.56H316.768V86.064C316.768 92.976 318.091 98.096 320.736 101.424C323.467 104.752 327.904 106.416 334.048 106.416C338.4 106.416 342.368 105.307 345.952 103.088C349.536 100.784 353.419 97.2427 357.6 92.464V48.56H363.232V110H358.496L357.856 98.096H357.344C354.016 101.936 350.389 105.136 346.464 107.696C342.539 110.256 338.101 111.536 333.152 111.536ZM417.582 111.536C411.267 111.536 405.55 110.555 400.43 108.592C395.31 106.629 390.915 104.368 387.246 101.808L390.19 97.712C393.603 100.357 397.486 102.533 401.838 104.24C406.19 105.861 411.609 106.672 418.094 106.672C424.409 106.672 429.145 105.477 432.302 103.088C435.459 100.613 437.038 97.7547 437.038 94.512C437.038 93.1467 436.782 91.824 436.27 90.544C435.843 89.264 434.905 88.0693 433.454 86.96C432.089 85.7653 429.955 84.656 427.054 83.632C424.153 82.608 420.27 81.584 415.406 80.56C407.641 79.024 401.582 76.8907 397.23 74.16C392.963 71.4293 390.83 67.8453 390.83 63.408C390.83 58.8853 392.793 55.0453 396.718 51.888C400.643 48.6453 406.702 47.024 414.894 47.024C418.99 47.024 423.214 47.7493 427.566 49.2C431.918 50.5653 435.545 52.3573 438.446 54.576L435.374 58.672C432.729 56.624 429.614 55.0027 426.03 53.808C422.531 52.528 418.691 51.888 414.51 51.888C409.987 51.888 406.446 52.4 403.886 53.424C401.326 54.448 399.491 55.8133 398.382 57.52C397.273 59.2267 396.718 61.0613 396.718 63.024C396.718 66.2667 398.339 68.8267 401.582 70.704C404.91 72.5813 410.03 74.2453 416.942 75.696C424.025 77.1467 429.443 78.7253 433.198 80.432C436.953 82.1387 439.513 84.1013 440.878 86.32C442.243 88.5387 442.926 91.184 442.926 94.256C442.926 97.328 441.945 100.187 439.982 102.832C438.019 105.392 435.118 107.483 431.278 109.104C427.523 110.725 422.958 111.536 417.582 111.536ZM468.092 130.48L509.948 19.12H515.708L473.852 130.48H468.092ZM563.402 111.536C555.893 111.536 550.346 109.488 546.762 105.392C543.178 101.296 541.386 95.1093 541.386 86.832V48.56H547.018V86.064C547.018 92.976 548.341 98.096 550.986 101.424C553.717 104.752 558.154 106.416 564.298 106.416C568.65 106.416 572.618 105.307 576.202 103.088C579.786 100.784 583.669 97.2427 587.85 92.464V48.56H593.482V110H588.746L588.106 98.096H587.594C584.266 101.936 580.639 105.136 576.714 107.696C572.789 110.256 568.351 111.536 563.402 111.536ZM650.264 110V53.424H619.416V48.56H655.896V110H650.264ZM651.672 33.584C650.051 33.584 648.643 33.0293 647.448 31.92C646.253 30.8107 645.656 29.3173 645.656 27.44C645.656 25.5627 646.253 24.0693 647.448 22.96C648.643 21.8507 650.051 21.296 651.672 21.296C653.379 21.296 654.787 21.8507 655.896 22.96C657.091 24.0693 657.688 25.5627 657.688 27.44C657.688 29.3173 657.091 30.8107 655.896 31.92C654.787 33.0293 653.379 33.584 651.672 33.584Z" fill="white"/>
<path d="M115.5 26.5L167.5 5L270.5 26.5" stroke="white"/>
</g>
<defs>
<clipPath id="clip0_72_15">
<rect width="684" height="137" fill="white"/>
</clipPath>
</defs>
</svg>
